<mxfile host="app.diagrams.net" modified="2023-08-14T06:56:27.302Z" agent="Mozilla/5.0 (Windows NT 10.0; Win64; x64) AppleWebKit/537.36 (KHTML, like Gecko) Chrome/115.0.0.0 Safari/537.36" etag="-LLkKwE8Gj2L2_7pnqTf" version="21.6.8" type="github">
  <diagram name="第 1 页" id="HoBdVVIL5UeJ_BiSaGKR">
    <mxGraphModel dx="1434" dy="758" grid="1" gridSize="10" guides="1" tooltips="1" connect="1" arrows="1" fold="1" page="1" pageScale="1" pageWidth="827" pageHeight="1169" math="0" shadow="0">
      <root>
        <mxCell id="0" />
        <mxCell id="1" parent="0" />
        <mxCell id="We6IJ0oMtuoDq3Aywex--3" value="" style="edgeStyle=orthogonalEdgeStyle;rounded=0;orthogonalLoop=1;jettySize=auto;html=1;" parent="1" source="We6IJ0oMtuoDq3Aywex--1" target="We6IJ0oMtuoDq3Aywex--2" edge="1">
          <mxGeometry relative="1" as="geometry" />
        </mxCell>
        <mxCell id="We6IJ0oMtuoDq3Aywex--5" value="" style="edgeStyle=orthogonalEdgeStyle;rounded=0;orthogonalLoop=1;jettySize=auto;html=1;" parent="1" source="We6IJ0oMtuoDq3Aywex--1" target="We6IJ0oMtuoDq3Aywex--4" edge="1">
          <mxGeometry relative="1" as="geometry" />
        </mxCell>
        <mxCell id="We6IJ0oMtuoDq3Aywex--7" value="" style="edgeStyle=orthogonalEdgeStyle;rounded=0;orthogonalLoop=1;jettySize=auto;html=1;" parent="1" source="We6IJ0oMtuoDq3Aywex--1" target="We6IJ0oMtuoDq3Aywex--6" edge="1">
          <mxGeometry relative="1" as="geometry" />
        </mxCell>
        <mxCell id="We6IJ0oMtuoDq3Aywex--9" value="" style="edgeStyle=orthogonalEdgeStyle;rounded=0;orthogonalLoop=1;jettySize=auto;html=1;" parent="1" source="We6IJ0oMtuoDq3Aywex--1" target="We6IJ0oMtuoDq3Aywex--8" edge="1">
          <mxGeometry relative="1" as="geometry" />
        </mxCell>
        <mxCell id="We6IJ0oMtuoDq3Aywex--1" value="&lt;b&gt;WebSocket&lt;/b&gt;" style="rounded=0;whiteSpace=wrap;html=1;" parent="1" vertex="1">
          <mxGeometry x="300" y="180" width="100" height="40" as="geometry" />
        </mxCell>
        <mxCell id="We6IJ0oMtuoDq3Aywex--2" value="&lt;b&gt;@OnOpen&lt;br&gt;接入&lt;/b&gt;" style="whiteSpace=wrap;html=1;rounded=0;" parent="1" vertex="1">
          <mxGeometry x="450" y="180" width="120" height="40" as="geometry" />
        </mxCell>
        <mxCell id="We6IJ0oMtuoDq3Aywex--4" value="&lt;b&gt;@OnMessage&lt;br&gt;接收&lt;/b&gt;" style="rounded=0;whiteSpace=wrap;html=1;" parent="1" vertex="1">
          <mxGeometry x="300" y="300" width="100" height="40" as="geometry" />
        </mxCell>
        <mxCell id="We6IJ0oMtuoDq3Aywex--6" value="&lt;b&gt;@OnClose&lt;br&gt;连接关闭&lt;/b&gt;" style="rounded=0;whiteSpace=wrap;html=1;" parent="1" vertex="1">
          <mxGeometry x="300" y="60" width="100" height="40" as="geometry" />
        </mxCell>
        <mxCell id="We6IJ0oMtuoDq3Aywex--8" value="&lt;b&gt;@OnError&lt;br&gt;发生异常&lt;/b&gt;" style="rounded=0;whiteSpace=wrap;html=1;" parent="1" vertex="1">
          <mxGeometry x="120" y="180" width="100" height="40" as="geometry" />
        </mxCell>
        <mxCell id="We6IJ0oMtuoDq3Aywex--12" value="" style="edgeStyle=orthogonalEdgeStyle;rounded=0;orthogonalLoop=1;jettySize=auto;html=1;" parent="1" source="We6IJ0oMtuoDq3Aywex--10" target="We6IJ0oMtuoDq3Aywex--11" edge="1">
          <mxGeometry relative="1" as="geometry" />
        </mxCell>
        <mxCell id="We6IJ0oMtuoDq3Aywex--10" value="&lt;b&gt;消息&lt;br&gt;type:&lt;br&gt;body:&lt;/b&gt;" style="rounded=0;whiteSpace=wrap;html=1;" parent="1" vertex="1">
          <mxGeometry x="140" y="470" width="120" height="100" as="geometry" />
        </mxCell>
        <mxCell id="We6IJ0oMtuoDq3Aywex--11" value="&lt;b&gt;消息&lt;br&gt;type:&lt;br&gt;body:&lt;/b&gt;" style="rounded=0;whiteSpace=wrap;html=1;" parent="1" vertex="1">
          <mxGeometry x="340" y="470" width="120" height="100" as="geometry" />
        </mxCell>
      </root>
    </mxGraphModel>
  </diagram>
</mxfile>
